<?xml version="1.0" encoding="iso-8859-1"?>
<!-- Generator: Adobe Illustrator 19.0.0, SVG Export Plug-In . SVG Version: 6.00 Build 0)  -->
<svg xmlns="http://www.w3.org/2000/svg" xmlns:xlink="http://www.w3.org/1999/xlink" version="1.1" id="Capa_1" x="0px" y="0px" viewBox="0 0 455 455" style="enable-background:new 0 0 455 455;" xml:space="preserve" width="512" height="512">
<g>
	<polygon style="fill:#C1E8E6;" points="14.997,0 14.997,455 264.997,455 274.997,370 359.997,360 359.997,0  "/>
	<polygon style="fill:#98D9D5;" points="264.997,360 264.997,455 359.997,360  "/>
	<polygon style="fill:#6DA8D6;" points="298.835,100.454 94.542,304.747 115.708,354.293 348.333,135.81  "/>
	<polygon style="fill:#185F8D;" points="341.261,128.739 115.708,354.293 165.253,375.457 369.546,171.165  "/>
	<polygon style="fill:#274B6D;" points="44.997,425.003 95.084,404.379 87.423,382.577 65.621,374.916  "/>
	<path style="fill:#FFCC75;" d="M165.253,375.458c-1.681-6.258-5.065-12.306-10.129-17.37c-9.101-9.101-21.373-12.795-32.345-10.867   c1.928-10.972-1.766-23.244-10.867-32.345c-5.064-5.064-11.112-8.448-17.37-10.129l-0.048,0.048l-28.874,70.121l29.463,29.463   l70.121-28.874L165.253,375.458z"/>
	<path style="fill:#F2484B;" d="M431.253,67.032l-28.284-28.284c-11.667-11.667-30.759-11.667-42.426,0l-35.356,35.356   l28.284,42.426l42.426,28.284l35.356-35.356C442.92,97.791,442.92,78.699,431.253,67.032z"/>
	
		<rect x="328.733" y="72.635" transform="matrix(0.7071 -0.7071 0.7071 0.7071 15.0245 281.5421)" style="fill:#F2EBD9;" width="37.266" height="100"/>
</g>















</svg>
